HIERARCHY
ROOT mixamorig:Hips
{
	OFFSET 0.000000 3.528733 0.000000
	CHANNELS 6 Xposition Yposition Zposition Xrotation Yrotation Zrotation
	JOINT mixamorig:Spine
	{
		OFFSET 0.000000 0.284700 -0.015200
		CHANNELS 3 Xrotation Yrotation Zrotation
		JOINT mixamorig:Spine1
		{
			OFFSET 0.000000 0.332125 -0.017771
			CHANNELS 3 Xrotation Yrotation Zrotation
			JOINT mixamorig:Spine2
			{
				OFFSET 0.000000 0.379557 -0.020309
				CHANNELS 3 Xrotation Yrotation Zrotation
				JOINT mixamorig:Neck
				{
					OFFSET 0.000000 0.426989 -0.022847
					CHANNELS 3 Xrotation Yrotation Zrotation
					JOINT mixamorig:Head
					{
						OFFSET 0.000000 0.288600 0.098000
						CHANNELS 3 Xrotation Yrotation Zrotation
						JOINT mixamorig:HeadTop_End
						{
							OFFSET 0.000000 0.712700 0.242000
							CHANNELS 3 Xrotation Yrotation Zrotation
							End Site
							{
								OFFSET 0.000000 0.752666 0.000000
							}
						}
					}
				}
				JOINT mixamorig:LeftShoulder
				{
					OFFSET 0.202600 0.346984 -0.022672
					CHANNELS 3 Xrotation Yrotation Zrotation
					JOINT mixamorig:LeftArm
					{
						OFFSET 0.427337 -0.109325 0.000307
						CHANNELS 3 Xrotation Yrotation Zrotation
						JOINT mixamorig:LeftForeArm
						{
							OFFSET 0.849600 0.000000 0.000000
							CHANNELS 3 Xrotation Yrotation Zrotation
							JOINT mixamorig:LeftHand
							{
								OFFSET 0.753900 0.000000 0.000000
								CHANNELS 3 Xrotation Yrotation Zrotation
								JOINT mixamorig:LeftHandThumb1
								{
									OFFSET 0.136012 -0.086473 0.045448
									CHANNELS 3 Xrotation Yrotation Zrotation
									JOINT mixamorig:LeftHandThumb2
									{
										OFFSET 0.103772 -0.059913 0.059913
										CHANNELS 3 Xrotation Yrotation Zrotation
										JOINT mixamorig:LeftHandThumb3
										{
											OFFSET 0.095779 -0.055298 0.055298
											CHANNELS 3 Xrotation Yrotation Zrotation
											JOINT mixamorig:LeftHandThumb4
											{
												OFFSET 0.073275 -0.042305 0.042305
												CHANNELS 3 Xrotation Yrotation Zrotation
												End Site
												{
													OFFSET 0.065698 -0.038445 0.056164
												}
											}
										}
									}
								}
								JOINT mixamorig:LeftHandIndex1
								{
									OFFSET 0.449965 -0.020370 0.085418
									CHANNELS 3 Xrotation Yrotation Zrotation
									JOINT mixamorig:LeftHandIndex2
									{
										OFFSET 0.102424 0.000000 -0.000000
										CHANNELS 3 Xrotation Yrotation Zrotation
										JOINT mixamorig:LeftHandIndex3
										{
											OFFSET 0.096306 0.000000 -0.000000
											CHANNELS 3 Xrotation Yrotation Zrotation
											JOINT mixamorig:LeftHandIndex4
											{
												OFFSET 0.078408 0.000000 -0.000000
												CHANNELS 3 Xrotation Yrotation Zrotation
												End Site
												{
													OFFSET 0.078400 -0.000010 -0.001100
												}
											}
										}
									}
								}
								JOINT mixamorig:LeftHandMiddle1
								{
									OFFSET 0.430485 0.000000 0.000000
									CHANNELS 3 Xrotation Yrotation Zrotation
									JOINT mixamorig:LeftHandMiddle2
									{
										OFFSET 0.112203 0.000000 0.000000
										CHANNELS 3 Xrotation Yrotation Zrotation
										JOINT mixamorig:LeftHandMiddle3
										{
											OFFSET 0.108209 0.000000 0.000000
											CHANNELS 3 Xrotation Yrotation Zrotation
											JOINT mixamorig:LeftHandMiddle4
											{
												OFFSET 0.087466 0.000000 0.000000
												CHANNELS 3 Xrotation Yrotation Zrotation
												End Site
												{
													OFFSET 0.087400 -0.000057 -0.003400
												}
											}
										}
									}
								}
								JOINT mixamorig:LeftHandRing1
								{
									OFFSET 0.364574 -0.002440 -0.092011
									CHANNELS 3 Xrotation Yrotation Zrotation
									JOINT mixamorig:LeftHandRing2
									{
										OFFSET 0.114832 0.000000 0.000000
										CHANNELS 3 Xrotation Yrotation Zrotation
										JOINT mixamorig:LeftHandRing3
										{
											OFFSET 0.104409 0.000000 0.000000
											CHANNELS 3 Xrotation Yrotation Zrotation
											JOINT mixamorig:LeftHandRing4
											{
												OFFSET 0.080424 0.000000 0.000000
												CHANNELS 3 Xrotation Yrotation Zrotation
												End Site
												{
													OFFSET 0.080200 -0.000053 -0.006000
												}
											}
										}
									}
								}
								JOINT mixamorig:LeftHandPinky1
								{
									OFFSET 0.312269 -0.016255 -0.171399
									CHANNELS 3 Xrotation Yrotation Zrotation
									JOINT mixamorig:LeftHandPinky2
									{
										OFFSET 0.087028 0.000000 0.000000
										CHANNELS 3 Xrotation Yrotation Zrotation
										JOINT mixamorig:LeftHandPinky3
										{
											OFFSET 0.073733 0.000000 0.000000
											CHANNELS 3 Xrotation Yrotation Zrotation
											JOINT mixamorig:LeftHandPinky4
											{
												OFFSET 0.056250 0.000000 0.000000
												CHANNELS 3 Xrotation Yrotation Zrotation
												End Site
												{
													OFFSET 0.056100 -0.000056 -0.004100
												}
											}
										}
									}
								}
							}
						}
					}
				}
				JOINT mixamorig:RightShoulder
				{
					OFFSET -0.202600 0.346968 -0.022971
					CHANNELS 3 Xrotation Yrotation Zrotation
					JOINT mixamorig:RightArm
					{
						OFFSET -0.427342 -0.109309 -0.000307
						CHANNELS 3 Xrotation Yrotation Zrotation
						JOINT mixamorig:RightForeArm
						{
							OFFSET -0.849600 0.000000 -0.000000
							CHANNELS 3 Xrotation Yrotation Zrotation
							JOINT mixamorig:RightHand
							{
								OFFSET -0.753900 0.000000 -0.000000
								CHANNELS 3 Xrotation Yrotation Zrotation
								JOINT mixamorig:RightHandThumb1
								{
									OFFSET -0.139217 -0.077736 0.046135
									CHANNELS 3 Xrotation Yrotation Zrotation
									JOINT mixamorig:RightHandThumb2
									{
										OFFSET -0.102889 -0.059403 0.059403
										CHANNELS 3 Xrotation Yrotation Zrotation
										JOINT mixamorig:RightHandThumb3
										{
											OFFSET -0.097122 -0.056073 0.056073
											CHANNELS 3 Xrotation Yrotation Zrotation
											JOINT mixamorig:RightHandThumb4
											{
												OFFSET -0.076714 -0.044291 0.044291
												CHANNELS 3 Xrotation Yrotation Zrotation
												End Site
												{
													OFFSET -0.072157 -0.042014 0.053259
												}
											}
										}
									}
								}
								JOINT mixamorig:RightHandIndex1
								{
									OFFSET -0.450325 -0.003448 0.076701
									CHANNELS 3 Xrotation Yrotation Zrotation
									JOINT mixamorig:RightHandIndex2
									{
										OFFSET -0.104343 0.000000 -0.000000
										CHANNELS 3 Xrotation Yrotation Zrotation
										JOINT mixamorig:RightHandIndex3
										{
											OFFSET -0.097003 0.000000 -0.000000
											CHANNELS 3 Xrotation Yrotation Zrotation
											JOINT mixamorig:RightHandIndex4
											{
												OFFSET -0.081630 0.000000 -0.000000
												CHANNELS 3 Xrotation Yrotation Zrotation
												End Site
												{
													OFFSET -0.081600 -0.000082 -0.002198
												}
											}
										}
									}
								}
								JOINT mixamorig:RightHandMiddle1
								{
									OFFSET -0.397234 0.000000 -0.000000
									CHANNELS 3 Xrotation Yrotation Zrotation
									JOINT mixamorig:RightHandMiddle2
									{
										OFFSET -0.115313 0.000000 -0.000000
										CHANNELS 3 Xrotation Yrotation Zrotation
										JOINT mixamorig:RightHandMiddle3
										{
											OFFSET -0.121324 0.000000 -0.000000
											CHANNELS 3 Xrotation Yrotation Zrotation
											JOINT mixamorig:RightHandMiddle4
											{
												OFFSET -0.103502 0.000000 0.000000
												CHANNELS 3 Xrotation Yrotation Zrotation
												End Site
												{
													OFFSET -0.103400 -0.000083 -0.004599
												}
											}
										}
									}
								}
								JOINT mixamorig:RightHandRing1
								{
									OFFSET -0.356229 0.006227 -0.097026
									CHANNELS 3 Xrotation Yrotation Zrotation
									JOINT mixamorig:RightHandRing2
									{
										OFFSET -0.116123 0.000000 0.000000
										CHANNELS 3 Xrotation Yrotation Zrotation
										JOINT mixamorig:RightHandRing3
										{
											OFFSET -0.105608 0.000000 0.000000
											CHANNELS 3 Xrotation Yrotation Zrotation
											JOINT mixamorig:RightHandRing4
											{
												OFFSET -0.089388 0.000000 0.000000
												CHANNELS 3 Xrotation Yrotation Zrotation
												End Site
												{
													OFFSET -0.089200 -0.000198 -0.005797
												}
											}
										}
									}
								}
								JOINT mixamorig:RightHandPinky1
								{
									OFFSET -0.319258 -0.005155 -0.189362
									CHANNELS 3 Xrotation Yrotation Zrotation
									JOINT mixamorig:RightHandPinky2
									{
										OFFSET -0.084919 0.000000 0.000000
										CHANNELS 3 Xrotation Yrotation Zrotation
										JOINT mixamorig:RightHandPinky3
										{
											OFFSET -0.068357 0.000000 0.000000
											CHANNELS 3 Xrotation Yrotation Zrotation
											JOINT mixamorig:RightHandPinky4
											{
												OFFSET -0.053427 0.000000 0.000000
												CHANNELS 3 Xrotation Yrotation Zrotation
												End Site
												{
													OFFSET -0.053400 -0.000117 -0.001696
												}
											}
										}
									}
								}
							}
						}
					}
				}
			}
		}
	}
	JOINT mixamorig:LeftUpLeg
	{
		OFFSET 0.302300 -0.158000 -0.006800
		CHANNELS 3 Xrotation Yrotation Zrotation
		JOINT mixamorig:LeftLeg
		{
			OFFSET -0.021195 -1.512800 -0.072827
			CHANNELS 3 Xrotation Yrotation Zrotation
			JOINT mixamorig:LeftFoot
			{
				OFFSET 0.021196 -1.499076 -0.232845
				CHANNELS 3 Xrotation Yrotation Zrotation
				JOINT mixamorig:LeftToeBase
				{
					OFFSET 0.176214 -0.335644 0.384848
					CHANNELS 3 Xrotation Yrotation Zrotation
					JOINT mixamorig:LeftToe_End
					{
						OFFSET 0.078950 -0.008059 0.195507
						CHANNELS 3 Xrotation Yrotation Zrotation
						End Site
						{
							OFFSET 0.078950 -0.008059 0.195507
						}
					}
				}
			}
		}
	}
	JOINT mixamorig:RightUpLeg
	{
		OFFSET -0.302300 -0.158000 -0.006600
		CHANNELS 3 Xrotation Yrotation Zrotation
		JOINT mixamorig:RightLeg
		{
			OFFSET 0.021196 -1.512831 -0.074247
			CHANNELS 3 Xrotation Yrotation Zrotation
			JOINT mixamorig:RightFoot
			{
				OFFSET -0.021196 -1.499093 -0.231430
				CHANNELS 3 Xrotation Yrotation Zrotation
				JOINT mixamorig:RightToeBase
				{
					OFFSET -0.176206 -0.335620 0.376547
					CHANNELS 3 Xrotation Yrotation Zrotation
					JOINT mixamorig:RightToe_End
					{
						OFFSET -0.078935 -0.008056 0.196268
						CHANNELS 3 Xrotation Yrotation Zrotation
						End Site
						{
							OFFSET -0.078935 -0.008056 0.196268
						}
					}
				}
			}
		}
	}
}
MOTION
Frames: 4
Frame Time: 0.033333
0.075374 4.120178 -0.050135 15.443029 0.720114 -4.123237 19.912604 3.171010 3.558747 -0.707798 -1.217525 0.027975 -0.913638 -1.198756 2.659404 -4.962708 1.362896 -1.447110 -14.921086 1.328272 -1.022233 0.000001 0.000000 -0.000000 1.347622 -1.715677 0.569677 -36.935566 14.979698 -28.316508 -0.000014 -65.748364 0.000004 40.182628 -14.618043 23.879993 -7.261301 -2.831200 0.429520 17.288498 2.868495 30.607362 -15.415010 14.297311 26.188241 -0.000004 -0.000001 -0.000007 7.345205 -12.338047 13.487037 0.000001 0.000000 0.000006 0.198043 -1.511913 14.925343 0.000001 0.000001 0.000004 -0.795714 7.762145 8.723392 0.000001 -0.000007 -0.000002 0.145390 -1.298363 12.777747 0.000000 0.000001 0.000000 -0.449818 23.892546 2.515236 0.000010 0.000000 -0.000095 0.060712 -0.842166 8.247245 0.000001 0.000003 -0.000002 3.746474 38.107620 -4.451138 -0.000000 0.000006 -0.000004 0.198058 -1.511918 14.925357 0.000000 0.000001 0.000000 1.523132 1.512599 2.614204 -19.724804 -2.963100 36.512289 -0.000010 30.247554 -0.000004 0.743110 8.698207 -41.165376 -28.274342 0.029425 10.694665 15.134287 -5.402879 -12.494994 -15.145538 -5.962371 -13.225780 -0.000001 -0.000002 -0.000002 6.732597 20.556825 -16.310046 0.020868 -0.440829 5.419593 0.016230 -0.388904 4.779741 -0.000000 -0.000002 0.000000 0.209599 3.612801 -1.366391 0.043324 -0.634458 7.813001 0.071282 -0.812560 10.026305 0.000001 -0.000003 -0.000000 0.618175 -8.790648 4.914958 0.082574 -0.874022 10.793843 0.067450 -0.790674 9.753503 -0.000001 -0.000002 -0.000001 5.453095 -26.710256 12.102864 0.016224 -0.388885 4.779266 0.059858 -0.745030 9.185608 0.000000 0.000000 0.000000 -63.506375 3.274444 14.474825 61.103439 6.110905 3.609121 -10.120011 6.224331 1.380893 -4.648059 0.000019 0.000004 0.000000 0.000000 -0.000000 -57.055603 -28.558617 -12.622219 61.127837 7.820345 -7.786025 -17.064302 -15.387511 -0.898384 -4.891987 0.000005 -0.000001 -0.000000 -0.000006 0.000000 
0.091306 3.830834 -0.010627 15.922817 0.583891 -4.650382 17.715040 2.532468 3.995499 -0.392646 -1.423196 0.362200 -0.633807 -1.428341 2.628703 -5.251105 1.569058 -1.530128 -14.824196 1.959067 -0.830231 0.000001 -0.000000 0.000000 1.315773 -0.134061 1.960533 -32.501950 22.690990 -28.996328 0.000053 -77.027267 0.000061 39.180168 -15.299625 18.385582 -5.935714 -4.624657 -8.224155 17.288491 2.868516 30.607345 -15.285391 15.170444 22.799448 -0.000001 0.000000 0.000002 7.293005 -12.118095 11.338198 -0.000004 -0.000002 -0.000030 0.198054 -1.511916 14.925341 0.000000 -0.000000 -0.000000 -0.795717 7.762154 8.723409 0.000002 -0.000002 -0.000004 0.096707 -1.061176 10.413693 -0.000002 0.000001 -0.000000 0.158846 24.082199 0.866058 -0.000001 0.000007 -0.000142 0.060694 -0.842021 8.245806 -0.000001 0.000000 -0.000000 5.416674 38.272487 -7.273007 -0.000006 -0.000007 -0.000213 0.198058 -1.511915 14.925346 -0.000000 0.000000 -0.000001 1.379233 0.969794 3.318257 -9.430452 -0.737835 24.105802 -0.000004 37.380099 0.000016 -8.767789 8.882425 -40.425462 -24.132167 -0.566862 13.512769 14.281167 -16.423810 -13.938753 -13.251049 -19.196639 -15.869514 -0.000002 0.000000 -0.000003 4.473463 20.751431 -10.448492 0.070580 -0.808596 9.977113 0.320540 -1.699494 21.359955 0.000001 0.000001 0.000001 -0.889736 2.692831 10.131034 0.108328 -0.999663 12.368570 0.667408 -2.404257 31.025243 -0.000001 -0.000000 -0.000000 1.903252 -9.571671 15.332231 0.166479 -1.235347 15.349863 0.646480 -2.369132 30.522490 0.000003 -0.000001 0.000000 10.752366 -26.742914 24.324838 0.054886 -0.713715 8.796149 0.603902 -2.295445 29.476033 0.000000 0.000001 0.000003 -58.357560 4.893297 14.307756 51.871779 5.474978 3.734971 -6.426514 3.645400 -1.624462 -5.693467 -0.000013 0.000002 -0.000000 0.000005 0.000000 -51.630718 -31.064947 -11.076534 52.625043 9.810602 -8.749633 -12.376892 -13.441877 0.958034 -6.819098 -0.000031 -0.000006 -0.000000 -0.000003 -0.000000 
0.108738 3.469701 -0.002027 17.336470 1.453420 -5.056612 18.124078 2.274691 4.819661 -0.980546 -1.620526 0.644562 -1.259564 -1.649407 2.528612 -5.990155 1.607531 -1.751155 -17.533215 1.819378 -1.127180 -0.000000 0.000000 -0.000000 1.036229 1.768257 3.848548 -31.507222 28.966136 -25.413652 -0.000128 -86.760294 -0.000055 33.367168 -12.308701 15.135368 -4.111455 -6.775012 -17.023372 17.288505 2.868501 30.607348 -15.073924 16.082036 19.179484 -0.000003 -0.000001 0.000001 7.257749 -11.897035 9.058473 -0.000012 -0.000002 0.000012 0.198059 -1.511900 14.925343 -0.000001 0.000002 0.000001 -0.795715 7.762174 8.723394 0.000004 -0.000001 -0.000003 0.055787 -0.807429 7.904648 -0.000001 0.000000 0.000000 0.813017 24.266496 -0.889392 0.000006 -0.000005 -0.000082 0.060668 -0.841887 8.244279 0.000001 -0.000000 -0.000002 7.206621 38.374663 -10.279663 0.000001 -0.000002 0.000016 0.198059 -1.511926 14.925333 0.000000 -0.000001 -0.000001 1.324002 0.507468 0.967159 -2.267747 -6.860962 10.679433 -0.000003 43.124486 -0.000003 -19.491297 14.057659 -36.763903 -23.851316 -0.596704 13.706201 14.211362 -17.168321 -14.045292 -13.141322 -20.094500 -16.038601 -0.000001 -0.000005 -0.000003 4.319408 20.755741 -10.051639 0.075002 -0.833340 10.285508 0.354639 -1.784209 22.481882 0.000001 -0.000001 0.000001 -0.957445 2.621170 10.907434 0.113771 -1.024155 12.676728 0.728269 -2.502557 32.446769 -0.000002 -0.000001 -0.000000 1.996315 -9.616653 16.038164 0.173185 -1.259495 15.658000 0.705786 -2.466913 31.928433 -0.000000 0.000001 0.000001 11.112916 -26.706465 25.150208 0.058324 -0.735571 9.067862 0.660072 -2.392022 30.849516 -0.000000 0.000000 -0.000000 -58.716022 5.961256 13.056217 50.086914 4.391835 3.736518 -3.559497 1.413400 -4.025223 -7.397319 0.000002 0.000003 0.000000 -0.000003 0.000000 -51.827479 -31.483617 -11.327470 51.778510 10.016814 -9.340320 -9.325532 -11.644297 1.486854 -9.218977 0.000002 -0.000007 -0.000000 -0.000003 -0.000000 
0.123200 3.070143 -0.036909 18.377275 2.981126 -5.474082 22.716699 2.626344 6.016205 -2.334567 -1.800281 0.829695 -2.653295 -1.849629 2.323883 -7.074914 1.476352 -2.082593 -23.318807 1.146630 -1.958370 -0.000000 -0.000000 -0.000000 0.707766 2.452270 5.208423 -39.730111 33.334677 -15.819893 -0.001736 -89.774634 -0.001521 27.899074 -8.661149 15.021591 -2.061413 -8.319971 -23.765044 17.246127 2.984521 30.608489 -14.866639 16.734629 16.412892 0.000000 -0.000001 -0.000000 7.191026 -11.724990 6.999170 0.000065 0.029922 -0.292006 0.190477 -1.483237 14.635670 -0.000001 0.000001 -0.000000 -0.768518 7.741758 8.501423 0.000077 0.029406 -0.287076 0.027353 -0.566040 5.532383 -0.000000 -0.000000 -0.000000 1.419593 24.113766 -2.572269 0.000093 0.031494 -0.307394 0.056432 -0.812097 7.950636 0.000000 -0.000002 0.000001 8.791072 38.281646 -12.983626 0.000072 0.029416 -0.287013 0.189603 -1.479859 14.601541 -0.000001 -0.000000 -0.000005 1.482088 0.310125 -4.627037 -2.477677 -17.640739 2.116686 -0.000014 41.600411 0.000011 -32.549164 22.221749 -27.831339 -26.009521 -0.335328 12.225842 14.706475 -11.438357 -13.257681 -14.043248 -13.196336 -14.711239 0.000003 -0.000002 -0.000003 5.501527 20.694459 -13.103405 0.044441 -0.642597 7.913771 0.135770 -1.117479 13.854008 -0.000001 0.000004 -0.000000 -0.413178 3.143718 4.931408 0.075311 -0.835010 10.306482 0.325194 -1.711398 21.516966 -0.000001 -0.000003 0.000003 1.298939 -9.243760 10.612480 0.124940 -1.072646 13.287759 0.313400 -1.681189 21.118443 0.000001 0.000000 -0.000002 8.336412 -26.861751 18.792180 0.034571 -0.567023 6.977895 0.289529 -1.618031 20.288894 -0.000000 0.000000 0.000001 -66.166693 5.873030 12.244104 60.926059 3.766527 3.769327 -8.073423 0.518759 -3.516090 -10.068612 0.000009 0.000006 -0.000000 0.000005 0.000000 -58.454412 -29.977721 -13.961930 63.103667 9.949660 -9.664638 -17.269565 -13.299718 -1.636566 -11.788636 -0.000007 -0.000005 -0.000000 -0.000005 -0.000001 
